<svg x="0" y="0" width="700" height="350" viewBox="0 0 700 350" xmlns="http://www.w3.org/2000/svg" xmlns:xlink="http://www.w3.org/1999/xlink" xmlns:fi="http://pattern.flaticon.com/"><rect x="0px" y="0px" width="100%" height="100%" opacity="1" fill="#ffffff"/><defs><g transform="matrix(0.17578125 0 0 0.17578125 305 305)" id="L1_11"><path d="M434.439,110.654C401.179,45.876,334.359,0.003,255.98,0v101.329  c55.478,0.004,100.593,43.67,100.595,99.15c0,54.805-45.491,102.048-100.595,102.052V512  c70.646-73.617,151.953-154.542,187.529-251.428C461.298,212.121,457.979,156.5,434.439,110.654z" fill="#b3b3b3"/><path d="M68.492,260.572C104.067,357.458,185.374,438.383,256.02,512V302.531  c-55.103-0.004-100.595-47.247-100.595-102.052c0.002-55.479,45.117-99.146,100.595-99.15V0  c-78.379,0.003-145.199,45.876-178.46,110.654C54.021,156.5,50.702,212.121,68.492,260.572z" fill="#979797"/><circle cx="256" cy="198" r="160" fill="#f0f0f0"/><path d="M416,198.773c0,88.366-71.634,160-160,160s-160-71.634-160-160" fill="#496e2d"/><path d="M372.883,150.112c-5.722-16.226-21.182-27.86-39.366-27.86H297.74  c-23.052,0-41.74,18.688-41.74,41.74c0,7.532,2.005,14.77,5.494,20.868c-13.285-0.109-25.581,0.093-33.321,0  c0-16.097,0-36.603,0-40.894l1.644-1.645c7.379-7.379,4.918-19.676,4.918-19.676s-12.295-2.46-19.675,4.919l-8.601,8.601h-9.591  c-21.132,0-38.261,17.13-38.261,38.26h27.826v31.305c0,4.579,0.924,8.942,2.592,12.913l-9.548,7.956h-13.913v-13.913h-13.914v27.826  h62.608v27.826h-13.913v13.913h27.826v-27.826l12.753-15.305h30.146l12.753,15.305v13.914h-13.913v13.913h55.652V205.73  c0-11.526,9.344-20.869,20.868-20.869c0.297,0,0.591,0.011,0.883,0.022c-0.576-2.23-0.883-4.569-0.883-6.979  C346.434,162.998,358.156,150.83,372.883,150.112z M297.74,268.338V239.12h1.159l12.753,15.305v13.914L297.74,268.338  L297.74,268.338z" fill="#d80027"/><path d="M255.929,21.707c-73.745,0-141.451,47.552-166.61,116.806  c-25.343,69.773-3.142,149.836,53.974,197.071c57.236,47.338,140.369,53.625,203.978,15.148  c63.626-38.49,97.228-114.681,82.271-187.573C414.889,91.771,355.517,35.121,283.472,23.843  C274.361,22.416,265.141,21.707,255.929,21.707 M398.59,263.184c-30.241,67.009-105.732,104.802-177.479,88.399  c-55.215-12.621-100.384-55.764-115.778-110.195c-15.749-55.658,1.328-116.804,43.417-156.425  c45.534-42.867,114.172-54.571,171.321-28.799c68.228,30.767,105.971,108.144,87.651,180.844  C405.459,245.986,402.37,254.739,398.59,263.184C396.502,267.81,400.132,259.739,398.59,263.184" fill="#c7c7c7"/></g><g transform="matrix(-0.1171875 0 0 0.1171875 117.5 57.5)" id="L1_12"><path d="M434.439,110.654C401.179,45.876,334.359,0.003,255.98,0v101.329  c55.478,0.004,100.593,43.67,100.595,99.15c0,54.805-45.491,102.048-100.595,102.052V512  c70.646-73.617,151.953-154.542,187.529-251.428C461.298,212.121,457.979,156.5,434.439,110.654z" fill="#b3b3b3"/><path d="M68.492,260.572C104.067,357.458,185.374,438.383,256.02,512V302.531  c-55.103-0.004-100.595-47.247-100.595-102.052c0.002-55.479,45.117-99.146,100.595-99.15V0  c-78.379,0.003-145.199,45.876-178.46,110.654C54.021,156.5,50.702,212.121,68.492,260.572z" fill="#979797"/><circle cx="256" cy="198" r="160" fill="#f0f0f0"/><path d="M416,198.773c0,88.366-71.634,160-160,160s-160-71.634-160-160" fill="#496e2d"/><path d="M372.883,150.112c-5.722-16.226-21.182-27.86-39.366-27.86H297.74  c-23.052,0-41.74,18.688-41.74,41.74c0,7.532,2.005,14.77,5.494,20.868c-13.285-0.109-25.581,0.093-33.321,0  c0-16.097,0-36.603,0-40.894l1.644-1.645c7.379-7.379,4.918-19.676,4.918-19.676s-12.295-2.46-19.675,4.919l-8.601,8.601h-9.591  c-21.132,0-38.261,17.13-38.261,38.26h27.826v31.305c0,4.579,0.924,8.942,2.592,12.913l-9.548,7.956h-13.913v-13.913h-13.914v27.826  h62.608v27.826h-13.913v13.913h27.826v-27.826l12.753-15.305h30.146l12.753,15.305v13.914h-13.913v13.913h55.652V205.73  c0-11.526,9.344-20.869,20.868-20.869c0.297,0,0.591,0.011,0.883,0.022c-0.576-2.23-0.883-4.569-0.883-6.979  C346.434,162.998,358.156,150.83,372.883,150.112z M297.74,268.338V239.12h1.159l12.753,15.305v13.914L297.74,268.338  L297.74,268.338z" fill="#d80027"/><path d="M255.929,21.707c-73.745,0-141.451,47.552-166.61,116.806  c-25.343,69.773-3.142,149.836,53.974,197.071c57.236,47.338,140.369,53.625,203.978,15.148  c63.626-38.49,97.228-114.681,82.271-187.573C414.889,91.771,355.517,35.121,283.472,23.843  C274.361,22.416,265.141,21.707,255.929,21.707 M398.59,263.184c-30.241,67.009-105.732,104.802-177.479,88.399  c-55.215-12.621-100.384-55.764-115.778-110.195c-15.749-55.658,1.328-116.804,43.417-156.425  c45.534-42.867,114.172-54.571,171.321-28.799c68.228,30.767,105.971,108.144,87.651,180.844  C405.459,245.986,402.37,254.739,398.59,263.184C396.502,267.81,400.132,259.739,398.59,263.184" fill="#c7c7c7"/></g><g transform="matrix(0.07810018956661224 0 0 0.07810018956661224 242.5 67.5)" id="L1_13"><path d="m497.3125 88.933594c-20.109375-5.566406-40.765625-8.941406-61.601562-10.0625-52.175782-3.085938-104.675782 6.257812-155.5625 15.300781-49.8125 8.855469-101.324219 18.003906-151.464844 15.050781-19.628906-1.058594-39.082032-4.230468-58.027344-9.464844-.757812-.179687-1.527344-.308593-2.304688-.386718v-23.734375c14.3125-11.152344 19.917969-30.195313 13.921876-47.320313-5.992188-17.128906-22.246094-28.519531-40.390626-28.31249975-18.144531.20703175-34.132812 11.96874975-39.734374 29.23046875-5.601563 17.257813.4375 36.167969 15.003906 46.988281v410.339844c-.050782 6.757812 2.640625 13.25 7.457031 17.992188 4.761719 4.894531 11.3125 7.640624 18.140625 7.609374 14.132812-.015624 25.585938-11.46875 25.601562-25.601562v-113.796875c19.386719 5.207031 39.261719 8.386719 59.304688 9.488281h.039062c.160157.011719.316407.015625.476563.015625h.007813c6.773437.390625 13.546874.585938 20.316406.585938 45.269531-1.355469 90.335937-6.671875 134.675781-15.894531 49.832031-8.851563 101.382813-18.023438 151.523437-15.058594 19.625 1.058594 39.078126 4.230468 58.019532 9.464844 1.515625.429687 3.082031.648437 4.660156.652343 3.949219.074219 7.753906-1.472656 10.535156-4.28125 2.777344-2.804687 4.285156-6.628906 4.175782-10.574219v-238.933593c-.320313-8.921875-6.246094-16.664063-14.773438-19.296875zm-446.027344 25.027344v372.601562c-.007812 4.710938-3.824218 8.527344-8.535156 8.53125-2.296875.007812-4.496094-.9375-6.074219-2.605469-1.589843-1.558593-2.480469-3.699219-2.457031-5.925781v-402.601562c5.636719 1.148437 11.449219 1.097656 17.066406-.152344zm-8.886718-46.246094c-10.210938.003906-19.417969-6.148438-23.324219-15.582032-3.910157-9.433593-1.75-20.289062 5.46875-27.511718 7.222656-7.21875 18.078125-9.378906 27.511719-5.472656 9.433593 3.910156 15.585937 13.117187 15.582031 23.328124-.015625 13.933594-11.304688 25.222657-25.238281 25.238282zm452.621093 71.234375v68.984375c-21.515625-5.792969-43.613281-9.121094-65.878906-9.921875-3.082031-.179688-6.019531 1.320312-7.679687 3.917969-1.664063 2.601562-1.796876 5.894531-.34375 8.617187 1.453124 2.722656 4.261718 4.449219 7.347656 4.515625 22.535156.785156 44.886718 4.335938 66.554687 10.574219v118.664062c-19.390625-5.1875-39.265625-8.347656-59.308593-9.429687-52.210938-3.113282-104.707032 6.257812-155.511719 15.292968-49.828125 8.851563-101.371094 18.003907-151.523438 15.058594-19.625-1.058594-39.078125-4.230468-58.019531-9.464844-1.171875-.542968-2.027344-1.601562-2.304688-2.863281v-116.65625c14.402344 3.898438 29.09375 6.640625 43.933594 8.203125l2.027344-16.9375c-15.558594-1.640625-30.9375-4.65625-45.960938-9.019531v-101.660156c19.390626 5.183593 39.265626 8.34375 59.304688 9.429687 6.945312.410156 13.894531.597656 20.84375.597656 45.285156-1.355468 90.367188-6.675781 134.726562-15.902343 49.804688-8.855469 101.328126-18.023438 151.464844-15.050781 19.625 1.058593 39.074219 4.230468 58.015625 9.464843 1.175781.542969 2.027344 1.601563 2.304688 2.863281zm0 0"/><path d="m452.171875 135.660156v-.007812c-.007813-2.320313-.96875-4.539063-2.65625-6.136719l-.027344-.035156c-.09375-.085938-.222656-.113281-.316406-.195313-.753906-.667968-1.621094-1.199218-2.5625-1.5625-.222656-.082031-.460937-.074218-.691406-.136718-.734375-.261719-1.503907-.417969-2.28125-.460938h-.003907c-.136718 0-.25.070312-.386718.078125-.046875 0-.089844-.023437-.136719-.019531-9.621094.605468-19.738281 1.691406-30.070313 3.238281-3.015624.449219-5.558593 2.476563-6.675781 5.3125-1.117187 2.835937-.636719 6.054687 1.261719 8.4375 1.898438 2.386719 4.925781 3.578125 7.941406 3.128906 2.53125-.378906 5.058594-.734375 7.558594-1.054687-6.496094 6.957031-13.363281 13.554687-20.570312 19.765625-1.101563-1.132813-2.296876-2.242188-3.585938-3.335938-7.625-7.09375-18.984375-8.382812-28.007812-3.183593-1.804688 1.066406-3.46875 2.351562-4.953126 3.824218-.773437-1.515625-1.980468-2.769531-3.46875-3.597656h.003907c-2.386719-1-4.160157-3.070312-4.78125-5.582031.050781-9.726563 3.652343-19.101563 10.125-26.363281 2.207031-2.449219 4.253906-5.046876 6.117187-7.773438.054688-.085938.054688-.183594.105469-.269531.078125-.132813.191406-.238281.257813-.371094.761718-1.300781 1.167968-2.777344 1.183593-4.285156 0-4.710938-3.820312-8.53125-8.53125-8.53125-2 .082031-3.90625.855469-5.398437 2.1875-.453125.296875-.878906.632812-1.265625 1.011719-.125.148437-.246094.308593-.363281.464843-1.945313 2.207031-3.769532 4.515625-5.472657 6.914063-10.542969 11.667968-24.660156 19.511718-40.140625 22.292968-29.078125 4.964844-59.03125 10.082032-65.535156 40.007813 1.371094-10.851563 1.113281-21.847656-.757812-32.625l6.257812-6.730469c3.136719-3.464844 2.902344-8.808594-.523438-11.988281-3.429687-3.175781-8.777343-3.003906-11.992187.386719l-9.050781 9.738281c-.074219.078125-.09375.183594-.164063.265625-.058593.058594-.148437.089844-.203125.152344-5.164062 5.785156-42.765625 12.371094-52.375 12.71875-.738281-.066406-1.480468-.03125-2.207031.097656-2.710937.464844-5.03125 2.210938-6.230469 4.6875-2.125 4.433594-3.519531 9.183594-4.128906 14.066406-4.15625-.519531-8.179688-1.824218-11.84375-3.851562.949219-.171875 1.898438-.285156 2.847656-.464844 3.023438-.542969 5.519532-2.664062 6.542969-5.558594 1.019531-2.894531.410156-6.117187-1.601563-8.433594-2.011718-2.320312-5.113281-3.378906-8.125-2.777343-6.601562 1.257812-13.207031 2.332031-19.816406 3.230469-.222656.03125-.390625.164062-.605468.210937-.285157.023437-.566407.0625-.84375.117187-.492188.179688-.964844.402344-1.410157.664063-.144531.078125-.304687.121094-.441406.207031-.8125.507813-1.53125 1.148438-2.128906 1.894532-.148438.183593-.269531.375-.402344.570312-.46875.675781-.835937 1.421875-1.089844 2.207031-.054687.171875-.136719.316407-.183593.488281-.015626.070313-.058594.128907-.074219.199219l-4.265625 18.617188c-1.050782 4.59375 1.820312 9.167969 6.414062 10.222656.625.144531 1.265625.214844 1.910156.214844 3.976563-.003907 7.421876-2.753907 8.308594-6.628907l.839844-3.664062c7.8125 5.699219 17.078125 9.074219 26.722656 9.738281.753906 4.402344 2.382813 8.609375 4.792969 12.371094.839844.90625 1.863281 1.621094 3.007813 2.09375 3.261718 1.28125 6.972656.492187 9.4375-2 2.589843-3.222656 6.214843-5.449219 10.261718-6.304687.308594.046874.96875.738281 1.59375 1.894531 1.089844 2.097656-3.265625 8.8125-6.761718 14.210937-7.042969 9.671875-12.015626 20.695313-14.597657 32.378906-4.8125-11.003906-9.625-22.089843-14.441406-33.253906-.21875-.382812-.46875-.742187-.742187-1.085937-.253907-.464844-.554688-.902344-.894532-1.308594-.085937-.089844-.117187-.214844-.207031-.304687-2.824219-2.78125-5.648437-5.597657-8.46875-8.445313-2.125-2.265625-5.3125-3.199219-8.324219-2.433594-3.007812.765625-5.367187 3.101563-6.152344 6.109375-.789062 3.003906.117188 6.195313 2.367188 8.339844 1.402344 1.414062 2.800781 2.804688 4.203125 4.203125l-5.769531 11.554687c-2.117188 4.210938-.421875 9.339844 3.789062 11.457032 4.214844 2.117187 9.34375.421875 11.460938-3.789063l.367187-.738281c2.4375 5.609375 4.875 11.257812 7.308594 16.816406 5.355469 12.328125 13.390625 23.3125 23.515625 32.152344.257812.257812.53125.496094.816406.71875 4.1875 3.589844 8.726563 6.75 13.539063 9.441406l2.457031 1.378906c4.042969 2.199219 8.34375 3.894532 12.804688 5.046876-4.796876 10.269531-9.589844 20.5-14.386719 30.691406-2.335938.257812-4.742188.554687-7.015625.777344-3.238282-3.457032-7.773438-5.417969-12.511719-5.402344-6.710937.101562-12.785156 3.984375-15.695313 10.03125l-.898437 1.851562c-2.0625 4.238282-.300781 9.347656 3.941406 11.40625 4.238281 2.0625 9.34375.300782 11.40625-3.941406l.902344-1.847656-7.675781-3.734375 7.699218 2.84375.910157 1.742187c1.621093 3.035156 4.886719 4.8125 8.316406 4.53125 10.75-.960937 22.066406-2.289062 34.574219-4.0625 4.617187-.710937 7.808594-5.007812 7.152344-9.632812-.660157-4.628906-4.917969-7.867188-9.554688-7.261719-.527344.074219-1.003906.128906-1.527344.203125 4.128906-8.789062 8.261719-17.582031 12.390625-26.4375 11.167969-.566406 22.039063-3.792969 31.707031-9.410156l-.019531-.035156c3.140625-1.289063 6.152344-2.863282 9.003907-4.699219.320312.277343.5625.480469.671874.5625 4.089844 2.84375 8.917969 4.445312 13.898438 4.605469 2.984375.136718 5.972656.007812 8.929688-.386719l-11.484376 25.023437c-1.53125.269532-3.0625.535156-4.589843.804688l-2.71875.480468c-3.058594-2.976562-7.21875-4.542968-11.480469-4.320312-7.085938.371094-13.375 4.660156-16.304688 11.125l-.890624 1.941406c-1.972657 4.277344-.105469 9.347656 4.175781 11.320313 1.117187.523437 2.335937.792969 3.574219.789062 3.328124.003907 6.355468-1.933593 7.753906-4.957031l.898437-1.960938c.15625-.355468.402344-.664062.707031-.902343l.21875.394531c1.765626 3.207031 5.371094 4.941406 8.980469 4.320312l8.078125-1.441406c8.664063-1.539062 17.335938-3.082031 26.007813-4.5625 4.644531-.796875 7.765625-5.210937 6.972656-9.855468-.796875-4.644532-5.210937-7.765626-9.855469-6.972657-.363281.0625-.726562.128907-1.089844.191407l11.828126-25.78125c5.878906-1.804688 10.929687-5.636719 14.25-10.816407 2.273437.34375 4.386718.691407 4.96875.816407 11.335937 3.578124 23.410156 4.128906 35.023437 1.589843 4.46875-1.097656 8.867187-2.460937 13.175781-4.082031-4.695312 9.640625-9.378906 19.300781-14.066406 29.078125-2.40625.234375-4.730469.425781-7.210938.703125-3.097656-3.367188-7.523437-5.1875-12.09375-4.976562-6.941406.277343-13.140624 4.429687-16.042968 10.742187l-.898438 1.929687c-1.996094 4.269532-.152344 9.34375 4.117188 11.339844 1.128906.53125 2.363281.808594 3.609375.804688 3.316406 0 6.332031-1.917969 7.734375-4.921875l.902344-1.9375c.113281-.253907.285156-.476563.5-.652344l.40625.761719c1.660156 3.097656 5.042968 4.863281 8.53125 4.457031 12.027343-1.425781 23.015624-2.386719 33.59375-2.964844 4.675781-.292969 8.246093-4.300781 7.992187-8.980469-.253906-4.679687-4.238281-8.28125-8.917969-8.0625-.808594.042969-1.664062.125-2.476562.171876 6.378906-13.242188 12.753906-26.492188 19.132812-39.46875l.015625-.058594c.402344-.882813.652344-1.828125.738281-2.796875.015626-.140625.097657-.269531.105469-.414063-.027343-.484375-.097656-.96875-.203125-1.441406-.015625-.636719-.105468-1.273438-.269531-1.886719l-.007813-.019531v-.019531c-.257812-.566407-.582031-1.101563-.960937-1.59375-.675781-1.503907-1.917969-2.671875-3.457031-3.253907l-.011719-.011718c-2.667969-1.246094-5.335937-2.457032-8.046875-3.667969-3.46875-1.488281-6.003906-4.570313-6.789062-8.261719-.941407-4.539062.347656-9.25 3.460937-12.679687.035156-.042969.042969-.097657.078125-.140625 1.25-1.371094 2.386719-2.84375 3.402344-4.398438.980468-1.292968 1.882812-2.640625 2.703125-4.042968 7.082031-10.507813 10.996093-22.835938 11.273437-35.507813 6.828125-5.796875 16.179688-14.535156 24.277344-22.929687v2.554687c0 4.714844 3.820312 8.535156 8.53125 8.535156h.003906c2.265625-.003906 4.433594-.902343 6.035156-2.503906 1.597657-1.601563 2.496094-3.773437 2.496094-6.035156l-.011718-25.140625.011718-.042969zm-73.128906 38.894532c1.042969-.746094 2.292969-1.160157 3.578125-1.179688 2 .121094 3.894531.953125 5.339844 2.34375.304687.257812.601562.515625.886718.773438-7.703125 4.925781-10.566406 4.460937-10.828125 4.4375-.863281-.101563-1.695312-.378907-2.445312-.820313.1875-2.304687 1.476562-4.375 3.464843-5.554687zm-140.832031 42.695312.015624-.039062c4.492188-9.710938 7.703126-19.96875 9.550782-30.511719-.152344 1.820312-.226563 3.71875-.226563 5.691406 0 23.886719-9.003906 28.132813-10.15625 28.574219l-.355469.046875c.253907-1.292969.644532-2.554688 1.171876-3.761719zm128.679687 43.671875c-8.832031 1.867187-18.003906 1.367187-26.582031-1.453125-2.644532-.753906-16.042969-4.320312-21.003906-.464844-2.144532 1.660156-3.371094 4.242188-3.308594 6.953125.019531.863281-.890625 2.625-6.679688 4.4375-.839844.109375-1.660156.34375-2.429687.695313-3.101563.765625-6.242188 1.371094-9.40625 1.8125-3.15625.554687-6.363281.800781-9.566407.738281-1.554687-.019531-3.082031-.375-4.484374-1.046875-.328126-.289062-1.042969-.957031-1.78125-1.65625-3.179688-2.988281-7.539063-7.101562-12.839844-3.535156-.660156.382812-12.773438 7.355468-13.84375 7.957031l-.148438.085937c-13.773437 8.765626-31.125 9.703126-45.765625 2.476563l-2.4375-1.367187c-3.480469-1.941407-6.78125-4.191407-9.855469-6.730469l-1.066406-3.023438c-8.539062-20.515625.472656-34.414062 9.183594-47.859375 6.527344-10.0625 13.273438-20.464844 7.53125-31.464844-2.652344-5.738281-7.972656-9.785156-14.210938-10.808593-4.878906-.535157-9.800781.496093-14.058593 2.941406-.375-3.886719-.007813-7.8125 1.085937-11.5625 16.085938-1.386719 31.925782-4.882813 47.101563-10.390625 1.238281 17.984375-2.058594 35.992188-9.589844 52.371094l.070313.03125c-3.441407 6.359375-3.816407 13.9375-1.011719 20.605468 3.847656 6.296876 11.453125 9.222657 18.527343 7.125v-.011718c5.464844-1.1875 10.347657-4.246094 13.800782-8.644532 7.71875-10.628906 11.433594-23.640624 10.496094-36.742187 0-26.011719 17.085937-30.082031 52.609374-36.144531 8.152344-1.382813 16.054688-3.976563 23.441407-7.699219-.359375 3.148437-.203125 6.335937.460937 9.4375.453125 1.960937 1.144532 3.859375 2.0625 5.648437-.835937.460938-1.671875.96875-2.503906 1.507813-8.550781 5.425781-14.324219 14.300781-15.816406 24.320313-3.027344.910156-5.972656 2.074218-8.808594 3.476562-10.109375 4.074219-16.882812 13.703125-17.3125 24.59375.03125 2.378906 1.042969 4.636719 2.792969 6.246094s4.085937 2.429687 6.457031 2.261718c.648438-.023437 1.996094.011719 3.863281.035157 3.515625.046875 8.695313.113281 14.847657.113281 13.777343 0 32.34375-.363281 48.011718-2.007812-2.210937 5.601562-2.714844 11.730468-1.453125 17.617187 1.277344 5.480469 4.140625 10.464844 8.230469 14.328125-4.753906 1.921875-9.632812 3.523438-14.601562 4.792969zm19.445313-55.6875c-21.246094 3.332031-42.761719 4.625-64.25 3.867187 3.699218-2.007812 7.675781-3.460937 11.796874-4.3125 4.300782-.511718 7.535157-4.152343 7.535157-8.480468-.179688-10.300782 7.355469-19.113282 17.554687-20.539063-.539062 2.398438-.609375 4.875-.210937 7.300781 1.648437 7.90625 8.222656 13.832032 16.257812 14.652344 5.601563.761719 11.304688-.304687 16.253907-3.042968-1.453126 3.601562-3.097657 7.125-4.933594 10.550781zm0 0"/></g><g transform="matrix(0.03906257450580597 0 0 0.03906257450580597 165 165)" id="L1_14"><path d="m439.546 192.6c-1.05-4.008-5.146-6.402-9.155-5.356-4.007 1.05-6.405 5.148-5.355 9.155 16.495 62.991 24.858 166.651 24.858 308.101 0 4.143 3.358 7.5 7.5 7.5s7.5-3.357 7.5-7.5c0-142.732-8.529-247.671-25.348-311.9z"/><path d="m428.507 158.906c-11.201-27.042-23.183-37.512-31.938-43.203 7.673-9.84 13.145-21.269 15.978-33.481 5.258-22.671.995-46.862-11.698-66.372l-8.095-12.441c-1.271-1.953-3.378-3.205-5.702-3.387-2.323-.165-4.6.729-6.159 2.46l-34.736 38.596c-7.732 8.592-14.669 18.2-20.669 28.616-5.058-.704-10.394-.752-15.385 2.135-2.292 1.326-4.093 3.043-5.564 4.956-.793-.956-1.59-1.867-2.353-2.738-1.714-1.958-3.333-3.808-4.267-5.42-1.007-1.741-1.849-4.154-2.74-6.71-2.055-5.893-4.612-13.227-11.412-17.161-6.621-3.83-13.854-2.494-20.236-1.312-2.753.51-5.353.99-7.531.99s-4.778-.48-7.531-.99c-6.382-1.182-13.614-2.519-20.237 1.313-6.799 3.934-9.356 11.268-11.411 17.16-.891 2.556-1.733 4.969-2.74 6.71-.933 1.612-2.552 3.462-4.267 5.419-.763.871-1.56 1.783-2.353 2.739-1.471-1.913-3.273-3.63-5.564-4.956-4.991-2.889-10.327-2.84-15.384-2.135-6-10.416-12.938-20.023-20.67-28.615l-34.736-38.597c-1.56-1.731-3.832-2.636-6.159-2.46-2.324.182-4.431 1.434-5.702 3.387l-8.095 12.442c-5.609 8.622-9.594 18.082-11.842 28.118-.906 4.042 1.637 8.053 5.679 8.958 4.043.908 8.052-1.637 8.958-5.679 1.857-8.287 5.146-16.099 9.778-23.217l2.768-4.255 28.202 31.336c5.494 6.105 10.541 12.796 15.103 19.961-1.034-.166-2.098-.355-3.198-.559-6.382-1.181-13.615-2.521-20.236 1.312-6.8 3.935-9.357 11.268-11.412 17.16-1.422 4.116-2.931 7.784-7.006 12.13-.842.897-1.66 1.897-2.502 2.919-5.385-7.552-9.27-16.113-11.378-25.203-.936-4.034-4.961-6.55-9-5.611-4.035.936-6.547 4.965-5.612 9 2.832 12.209 8.3 23.635 15.97 33.474-11.351 7.326-27.287 21.926-40.849 69.171-18.226 63.491-27.467 171.031-27.467 319.633 0 4.143 3.358 7.5 7.5 7.5s7.5-3.357 7.5-7.5c0-304.69 38.284-359.042 59.241-374.612 1.858 3.375 4.37 6.256 6.597 8.8 1.714 1.958 3.334 3.808 4.268 5.421.634 1.03 1.934 4.289 3.056 7.613-12.864 2.293-22.663 13.553-22.663 27.065 0 13.425 9.672 24.627 22.413 27.021v15.223c-17.037 3.518-29.885 18.635-29.885 36.699 0 15.885 9.94 29.483 23.922 34.927-2.089 32.91-3.594 70.797-4.475 112.74-.087 4.141 3.2 7.568 7.341 7.655.054.001.106.002.16.002 4.069 0 7.41-3.255 7.496-7.343.798-38.028 2.111-72.685 3.909-103.28 10.23 16.985 15.784 36.659 15.784 56.551v13.467c0 8.047 3.509 15.661 9.626 20.89l18.462 15.78c-.948 3.843-1.962 7.67-3.044 11.482-1.964 6.918-2.959 14.18-2.959 21.624 0 8.427 2.672 16.237 7.201 22.646v29.639c0 9.645 7.846 17.491 17.491 17.491h9.991c3.714 0 7.155-1.172 9.991-3.155 2.835 1.982 6.276 3.155 9.991 3.155h9.991c3.714 0 7.155-1.172 9.991-3.155 2.835 1.982 6.276 3.155 9.991 3.155h9.991c3.714 0 7.155-1.172 9.991-3.155 2.835 1.982 6.276 3.155 9.991 3.155h9.991c9.645 0 17.491-7.847 17.491-17.491v-30.221c4.281-6.297 6.786-13.893 6.786-22.064 0-7.434-1.003-14.722-2.98-21.662-1.065-3.738-2.064-7.491-3-11.259l18.678-15.965c6.118-5.229 9.626-12.843 9.626-20.89v-13.467c0-19.992 5.614-39.766 15.944-56.81 3.242 55.075 4.886 123.041 4.886 202.328 0 4.143 3.358 7.5 7.5 7.5s7.5-3.357 7.5-7.5c0-83.76-1.83-154.992-5.439-211.844 13.982-5.444 23.922-19.042 23.922-34.927 0-18.125-12.936-33.282-30.06-36.732v-15.158c12.827-2.323 22.588-13.566 22.588-27.052 0-13.512-9.8-24.772-22.664-27.065.619-2.323 1.306-4.455 3.056-7.614.903-1.629 2.552-3.462 4.267-5.42 2.232-2.548 4.75-5.436 6.609-8.82 6.911 5.074 15.413 14.085 23.985 34.78 1.196 2.889 3.989 4.632 6.932 4.632.957 0 1.929-.185 2.867-.573 3.823-1.586 5.64-5.972 4.055-9.8zm-71.202-107.794 28.202-31.336 2.768 4.254c10.48 16.108 14.001 36.083 9.659 54.803-2.108 9.09-5.993 17.652-11.378 25.204-.842-1.022-1.691-1.994-2.502-2.919-1.714-1.958-3.333-3.808-4.267-5.42-1.007-1.741-1.849-4.154-2.74-6.71-2.055-5.893-4.612-13.227-11.411-17.159-6.623-3.834-13.855-2.495-20.237-1.313-1.1.203-2.164.393-3.198.559 4.563-7.166 9.61-13.858 15.104-19.963zm-136.205 32.815c2.113-2.413 4.298-4.908 5.965-7.789 1.719-2.972 2.838-6.18 3.92-9.283 1.366-3.918 2.779-7.97 4.76-9.115 1.826-1.06 6.168-.256 9.996.453 3.297.609 6.706 1.24 10.259 1.24s6.962-.631 10.259-1.24c3.829-.707 8.168-1.51 9.996-.453 1.981 1.146 3.394 5.197 4.76 9.116 1.082 3.103 2.201 6.311 3.92 9.282 1.667 2.881 3.852 5.376 5.965 7.79 2.758 3.149 5.61 6.406 5.61 8.902 0 1.401-.531 2.873-1.568 4.374-.905 1.222-1.992 2.597-3.256 3.912-4.69 4.877-7.748 9.649-10.321 17.417-1.479 4.019-3.009 8.174-5.109 9.389-1.828 1.058-6.168.255-9.996-.453-3.297-.609-6.706-1.24-10.259-1.24s-6.962.631-10.259 1.24c-3.828.709-8.167 1.512-9.996.453-2.1-1.215-3.625-5.361-5.101-9.372-.958-2.603-1.965-5.274-3.298-7.813-1.521-2.985-3.82-5.959-7.032-9.621-1.17-1.337-2.29-2.62-3.184-3.814-1.086-1.547-1.641-3.052-1.641-4.472-.001-2.496 2.851-5.753 5.61-8.903zm-87.481 35.975c0-2.497 2.852-5.754 5.61-8.904 2.113-2.413 4.298-4.908 5.965-7.789 1.719-2.971 2.838-6.18 3.92-9.282 1.366-3.918 2.699-8.121 4.761-9.116 2.421-1.168 5.371-.351 9.995.454 3.296.609 6.706 1.24 10.259 1.24s6.963-.631 10.259-1.24c3.829-.708 8.167-1.512 9.997-.453 1.98 1.146 3.393 5.196 4.759 9.114 1.082 3.104 2.201 6.312 3.92 9.283.508.671.5 1.441 5.964 7.789 2.759 3.15 5.611 6.407 5.611 8.904 0 2.496-2.852 5.753-5.61 8.903-2.113 2.413-4.298 4.908-5.965 7.789-1.719 2.972-2.838 6.18-3.92 9.283-1.366 3.918-2.779 7.97-4.76 9.115-1.828 1.058-6.168.255-9.996-.453-3.297-.609-6.706-1.24-10.259-1.24s-6.962.631-10.259 1.24c-3.829.709-8.167 1.513-9.996.453-1.981-1.146-3.394-5.197-4.76-9.115-1.082-3.103-2.201-6.312-3.919-9.282-1.667-2.881-3.853-5.377-5.966-7.791-2.758-3.149-5.61-6.405-5.61-8.902zm-6.015 58.884c0-6.893 5.607-12.5 12.5-12.5s12.5 5.607 12.5 12.5-5.607 12.5-12.5 12.5-12.5-5.607-12.5-12.5zm-7.472 78.943c0-12.391 10.081-22.472 22.472-22.472 12.392 0 22.473 10.081 22.473 22.472 0 12.392-10.081 22.473-22.473 22.473-12.391-.001-22.472-10.082-22.472-22.473zm58.509 124.206c-2.778-2.375-4.372-5.833-4.372-9.487v-13.467c0-23.281-6.692-46.3-18.985-65.992 14.441-5.209 24.793-19.047 24.793-35.26 0-18.125-12.936-33.282-30.06-36.732v-15.949c18.1 2.294 35.155 14.259 42.992 30.404 1.297 2.671 3.97 4.227 6.752 4.227 1.099 0 2.215-.243 3.27-.755 3.727-1.809 5.281-6.296 3.472-10.022-8.38-17.264-24.306-30.452-42.715-36.161 2.421-4.093 3.816-8.862 3.816-13.952 0-3.292-.583-6.45-1.648-9.378 2.172-.398 4.539-.874 8.174-1.109 2.178 0 4.778.48 7.531.99 6.381 1.18 13.613 2.518 20.237-1.313 6.799-3.934 9.356-11.268 11.411-17.16.891-2.556 1.733-4.969 2.74-6.71.933-1.612 2.552-3.462 4.267-5.419.757-.864 1.547-1.768 2.333-2.715 1.493 1.905 3.305 3.615 5.585 4.934 3.303 1.91 6.757 2.535 10.183 2.535 3.442 0 6.855-.631 10.053-1.223 2.753-.51 5.353-.99 7.531-.99s4.778.48 7.531.99c6.381 1.18 13.613 2.518 20.237-1.313 2.279-1.319 4.091-3.028 5.584-4.933 1.821 1.709 4.47 4.612 6.6 8.135 1.041 1.721 1.849 4.154 2.74 6.71 2.055 5.893 4.612 13.226 11.412 17.16 6.623 3.829 13.855 2.492 20.236 1.312 2.753-.51 5.353-.99 7.531-.99 1.289-.022 4.573.409 8.174 1.109-1.065 2.928-1.648 6.086-1.648 9.378 0 5.076 1.388 9.832 3.796 13.917-10.284 3.002-19.871 8.123-27.895 15.028-12.864 11.07-21.101 26.682-21.101 41.325 0 .699 0 77.668-.008 77.997 0 27.295 3.144 54.467 9.342 81.006 1.819 8.626 6.701 22.231 6.701 34.163 0 13.424-10.921 24.346-24.345 24.346h-70.188c-13.424 0-24.346-10.922-24.346-24.385-.285-11.726 4.288-23.171 7.075-35.858 5.806-26.427 8.852-52.332 8.852-78.902v-60.68c0-4.143-3.358-7.5-7.5-7.5s-7.5 3.357-7.5 7.5v60.68c0 21.87-2.106 43.661-6.269 65.085zm37.396 115.064h-9.991c-1.374 0-2.491-1.117-2.491-2.491v-16.878c4.57 2.222 9.631 3.583 14.973 3.875v13.002c-.001 1.375-1.118 2.492-2.491 2.492zm29.972 0h-9.991c-1.374 0-2.491-1.117-2.491-2.491v-12.939h14.973v12.939c0 1.374-1.118 2.491-2.491 2.491zm29.972 0h-9.991c-1.374 0-2.491-1.117-2.491-2.491v-12.939h14.972v12.939c.001 1.374-1.116 2.491-2.49 2.491zm29.973 0h-9.991c-1.374 0-2.491-1.117-2.491-2.491v-13.034c5.352-.349 10.412-1.772 14.973-4.057v17.09c-.001 1.375-1.118 2.492-2.491 2.492zm31.601-138.018v13.467c0 3.654-1.593 7.112-4.372 9.487l-12.611 10.779c-4.237-21.607-6.384-43.592-6.384-65.66v-77.453c1.277-24.594 24.667-41.453 47.62-44.461v15.891c-17.037 3.518-29.885 18.635-29.885 36.699 0 16.159 10.282 29.962 24.647 35.21-12.313 19.702-19.015 42.742-19.015 66.041zm54.312-101.252c0 12.392-10.081 22.473-22.472 22.473-12.392 0-22.473-10.081-22.473-22.473 0-12.391 10.081-22.472 22.473-22.472 12.391 0 22.472 10.081 22.472 22.472zm-7.471-78.943c0 6.893-5.607 12.5-12.5 12.5s-12.5-5.607-12.5-12.5 5.607-12.5 12.5-12.5 12.5 5.608 12.5 12.5zm-11.626-49.981c-2.113 2.414-4.299 4.909-5.965 7.79-1.719 2.972-2.838 6.18-3.92 9.282-1.366 3.919-2.779 7.971-4.76 9.116-1.828 1.059-6.167.256-9.996-.453-3.297-.609-6.706-1.24-10.259-1.24s-6.962.631-10.259 1.24c-3.828.708-8.168 1.511-9.996.454-1.981-1.146-3.394-5.198-4.76-9.116-1.082-3.103-2.201-6.312-3.92-9.282-1.667-2.881-3.852-5.377-5.965-7.79-2.758-3.15-5.61-6.407-5.61-8.903 0-2.497 2.668-5.926 5.611-8.904 2.093-2.118 3.974-4.349 5.964-7.789 1.719-2.971 2.838-6.18 3.92-9.282 1.366-3.918 2.779-7.97 4.76-9.116.636-.367 1.575-.511 2.691-.511 2.093 0 4.808.503 7.304.965 3.296.609 6.706 1.24 10.259 1.24s6.963-.631 10.259-1.24c3.828-.708 8.167-1.511 9.996-.453 1.981 1.146 3.394 5.197 4.76 9.115 1.082 3.103 2.201 6.312 3.92 9.282 1.667 2.881 3.852 5.376 5.965 7.789 2.758 3.15 5.61 6.407 5.61 8.904.001 2.496-2.851 5.752-5.609 8.902z"/><path d="m131.59 433.031c-4.118-.055-7.541 3.264-7.593 7.405-.254 20.315-.382 41.869-.382 64.062 0 4.143 3.358 7.5 7.5 7.5s7.5-3.357 7.5-7.5c0-22.131.128-43.622.381-63.875.052-4.14-3.264-7.54-7.406-7.592z"/><path d="m286.711 317.219c-2.22-1.365-4.99-1.479-7.314-.302-4.804 2.351-11.036 6.449-15.984 11.331v-38.009c0-4.143-3.358-7.5-7.5-7.5s-7.5 3.357-7.5 7.5v37.847c-3.618-3.561-9.758-8.236-15.807-11.167-2.325-1.178-5.096-1.063-7.315.3-2.221 1.364-3.574 3.784-3.574 6.391v22.716c0 19.291 4.818 38.474 13.934 55.475l13.74 25.627c1.306 2.436 3.846 3.956 6.61 3.956s5.304-1.521 6.61-3.956l13.74-25.627c9.115-17.001 13.934-36.184 13.934-55.475v-22.716c-.002-2.607-1.354-5.026-3.574-6.391zm-11.428 29.105c0 16.826-4.203 33.558-12.153 48.387l-7.13 13.299-7.13-13.299c-7.951-14.829-12.153-31.561-12.153-48.387v-8.67c5.48 4.988 9.683 11.281 12.214 18.428 1.061 2.995 3.893 4.997 7.07 4.997s6.009-2.002 7.07-4.997c2.531-7.147 6.734-13.44 12.214-18.429v8.671z"/><path d="m361.91 257.729c0 4.143 3.363 7.5 7.505 7.5s7.5-3.357 7.5-7.5-3.358-7.5-7.5-7.5h-.01c-4.142 0-7.495 3.357-7.495 7.5z"/><path d="m150.124 257.729c0-4.143-3.358-7.5-7.5-7.5h-.01c-4.142 0-7.495 3.357-7.495 7.5s3.363 7.5 7.505 7.5 7.5-3.358 7.5-7.5z"/><path d="m233.513 241.242c0 12.399 10.087 22.486 22.486 22.486s22.486-10.087 22.486-22.486-10.087-22.486-22.485-22.486-22.487 10.087-22.487 22.486zm22.487-7.486c4.128 0 7.486 3.358 7.486 7.486s-3.358 7.486-7.486 7.486-7.486-3.358-7.486-7.486 3.358-7.486 7.486-7.486z"/><path d="m285.972 212.775c12.399 0 22.486-10.087 22.486-22.486s-10.087-22.486-22.486-22.486-22.486 10.087-22.486 22.486 10.087 22.486 22.486 22.486zm0-29.972c4.128 0 7.486 3.358 7.486 7.486s-3.358 7.486-7.486 7.486-7.486-3.358-7.486-7.486 3.358-7.486 7.486-7.486z"/><path d="m226.027 212.775c12.399 0 22.486-10.087 22.486-22.486s-10.087-22.486-22.486-22.486-22.486 10.087-22.486 22.486 10.087 22.486 22.486 22.486zm0-29.972c4.128 0 7.486 3.358 7.486 7.486s-3.358 7.486-7.486 7.486-7.486-3.358-7.486-7.486 3.358-7.486 7.486-7.486z"/><path d="m256 115.491c12.496 0 22.661-10.166 22.661-22.661s-10.166-22.661-22.661-22.661-22.661 10.166-22.661 22.661 10.165 22.661 22.661 22.661zm0-30.322c4.224 0 7.661 3.437 7.661 7.661s-3.437 7.661-7.661 7.661-7.661-3.437-7.661-7.661 3.436-7.661 7.661-7.661z"/><path d="m337.87 97.241c-12.496 0-22.661 10.166-22.661 22.661s10.166 22.661 22.661 22.661 22.661-10.166 22.661-22.661-10.166-22.661-22.661-22.661zm0 30.323c-4.224 0-7.661-3.437-7.661-7.661s3.437-7.661 7.661-7.661 7.661 3.437 7.661 7.661-3.437 7.661-7.661 7.661z"/><path d="m174.129 142.564c12.496 0 22.661-10.166 22.661-22.661s-10.166-22.661-22.661-22.661-22.661 10.166-22.661 22.661 10.166 22.661 22.661 22.661zm0-30.323c4.224 0 7.661 3.437 7.661 7.661s-3.437 7.661-7.661 7.661-7.661-3.437-7.661-7.661 3.437-7.661 7.661-7.661z"/></g><g transform="matrix(0.0390625 0 0 0.0390625 340 165)" id="L1_15"><path d="m497 61h-482c-8.28 0-15 6.72-15 15v180l256 42.5 256-42.5v-180c0-8.28-6.72-15-15-15z" fill="#fff5f5"/><path d="m512 76v180l-256 42.5v-237.5h241c8.28 0 15 6.72 15 15z" fill="#efe2dd"/><path d="m512 256v180c0 8.28-6.72 15-15 15h-482c-8.28 0-15-6.72-15-15v-180z" fill="#97de3d"/><path d="m512 256v180c0 8.28-6.72 15-15 15h-241v-195z" fill="#5ab267"/><path d="m391 271v105c0 8.28-6.72 15-15 15h-30c-8.28 0-15-6.72-15-15s6.72-15 15-15h15v-30h-60v45c0 8.28-6.72 15-15 15h-30c-8.28 0-15-6.72-15-15s6.72-15 15-15h15v-30h-60v45c0 8.28-6.72 15-15 15h-30c-8.28 0-15-6.72-15-15s6.72-15 15-15h15v-68.79l-51.21-51.21h-23.79c-8.28 0-15-6.72-15-15s6.72-15 15-15h30c3.98 0 7.79 1.58 10.61 4.39l34.39 34.4v-98.79h-15c-8.28 0-15-6.72-15-15s6.72-15 15-15h45c16.57 0 30 13.43 30 30v73l.05-.03c.43-16.06 5.93-30.87 14.95-42.89 13.68-18.25 35.48-30.08 60-30.08h60c8.28 0 15 6.72 15 15 0 29.35-12.11 55.93-31.6 75h1.6c16.57 0 30 13.43 30 30z" fill="#e63950"/><path d="m391 271v105c0 8.28-6.72 15-15 15h-30c-8.28 0-15-6.72-15-15s6.72-15 15-15h15v-30h-60v45c0 8.28-6.72 15-15 15h-30v-30h15v-30h-15v-149.92c13.68-18.25 35.48-30.08 60-30.08h60c8.28 0 15 6.72 15 15 0 29.35-12.11 55.93-31.6 75h1.6c16.57 0 30 13.43 30 30z" fill="#ae2538"/></g><g transform="matrix(-0.1171875 0 0 0.1171875 205 232.5)" id="L1_16"><path d="m497 61h-482c-8.28 0-15 6.72-15 15v180l256 42.5 256-42.5v-180c0-8.28-6.72-15-15-15z" fill="#fff5f5"/><path d="m512 76v180l-256 42.5v-237.5h241c8.28 0 15 6.72 15 15z" fill="#efe2dd"/><path d="m512 256v180c0 8.28-6.72 15-15 15h-482c-8.28 0-15-6.72-15-15v-180z" fill="#97de3d"/><path d="m512 256v180c0 8.28-6.72 15-15 15h-241v-195z" fill="#5ab267"/><path d="m391 271v105c0 8.28-6.72 15-15 15h-30c-8.28 0-15-6.72-15-15s6.72-15 15-15h15v-30h-60v45c0 8.28-6.72 15-15 15h-30c-8.28 0-15-6.72-15-15s6.72-15 15-15h15v-30h-60v45c0 8.28-6.72 15-15 15h-30c-8.28 0-15-6.72-15-15s6.72-15 15-15h15v-68.79l-51.21-51.21h-23.79c-8.28 0-15-6.72-15-15s6.72-15 15-15h30c3.98 0 7.79 1.58 10.61 4.39l34.39 34.4v-98.79h-15c-8.28 0-15-6.72-15-15s6.72-15 15-15h45c16.57 0 30 13.43 30 30v73l.05-.03c.43-16.06 5.93-30.87 14.95-42.89 13.68-18.25 35.48-30.08 60-30.08h60c8.28 0 15 6.72 15 15 0 29.35-12.11 55.93-31.6 75h1.6c16.57 0 30 13.43 30 30z" fill="#e63950"/><path d="m391 271v105c0 8.28-6.72 15-15 15h-30c-8.28 0-15-6.72-15-15s6.72-15 15-15h15v-30h-60v45c0 8.28-6.72 15-15 15h-30v-30h15v-30h-15v-149.92c13.68-18.25 35.48-30.08 60-30.08h60c8.28 0 15 6.72 15 15 0 29.35-12.11 55.93-31.6 75h1.6c16.57 0 30 13.43 30 30z" fill="#ae2538"/></g></defs><g fi:class="KUsePattern"><pattern id="pattern_L1_11" width="350" height="350" patternUnits="userSpaceOnUse"><use xlink:href="#L1_11" x="-350" y="-350"/><use xlink:href="#L1_11" x="0" y="-350"/><use xlink:href="#L1_11" x="350" y="-350"/><use xlink:href="#L1_11" x="-350" y="0"/><use xlink:href="#L1_11" x="0" y="0"/><use xlink:href="#L1_11" x="350" y="0"/><use xlink:href="#L1_11" x="-350" y="350"/><use xlink:href="#L1_11" x="0" y="350"/><use xlink:href="#L1_11" x="350" y="350"/></pattern><rect x="0" y="0" width="100%" height="100%" fill="url(#pattern_L1_11)"/></g><g fi:class="KUsePattern"><pattern id="pattern_L1_12" width="350" height="350" patternUnits="userSpaceOnUse"><use xlink:href="#L1_12" x="-350" y="-350"/><use xlink:href="#L1_12" x="0" y="-350"/><use xlink:href="#L1_12" x="350" y="-350"/><use xlink:href="#L1_12" x="-350" y="0"/><use xlink:href="#L1_12" x="0" y="0"/><use xlink:href="#L1_12" x="350" y="0"/><use xlink:href="#L1_12" x="-350" y="350"/><use xlink:href="#L1_12" x="0" y="350"/><use xlink:href="#L1_12" x="350" y="350"/></pattern><rect x="0" y="0" width="100%" height="100%" fill="url(#pattern_L1_12)"/></g><g fi:class="KUsePattern"><pattern id="pattern_L1_13" width="350" height="350" patternUnits="userSpaceOnUse"><use xlink:href="#L1_13" x="-350" y="-350"/><use xlink:href="#L1_13" x="0" y="-350"/><use xlink:href="#L1_13" x="350" y="-350"/><use xlink:href="#L1_13" x="-350" y="0"/><use xlink:href="#L1_13" x="0" y="0"/><use xlink:href="#L1_13" x="350" y="0"/><use xlink:href="#L1_13" x="-350" y="350"/><use xlink:href="#L1_13" x="0" y="350"/><use xlink:href="#L1_13" x="350" y="350"/></pattern><rect x="0" y="0" width="100%" height="100%" fill="url(#pattern_L1_13)"/></g><g fi:class="KUsePattern"><pattern id="pattern_L1_14" width="350" height="350" patternUnits="userSpaceOnUse"><use xlink:href="#L1_14" x="-350" y="-350"/><use xlink:href="#L1_14" x="0" y="-350"/><use xlink:href="#L1_14" x="350" y="-350"/><use xlink:href="#L1_14" x="-350" y="0"/><use xlink:href="#L1_14" x="0" y="0"/><use xlink:href="#L1_14" x="350" y="0"/><use xlink:href="#L1_14" x="-350" y="350"/><use xlink:href="#L1_14" x="0" y="350"/><use xlink:href="#L1_14" x="350" y="350"/></pattern><rect x="0" y="0" width="100%" height="100%" fill="url(#pattern_L1_14)"/></g><g fi:class="KUsePattern"><pattern id="pattern_L1_15" width="350" height="350" patternUnits="userSpaceOnUse"><use xlink:href="#L1_15" x="-350" y="-350"/><use xlink:href="#L1_15" x="0" y="-350"/><use xlink:href="#L1_15" x="350" y="-350"/><use xlink:href="#L1_15" x="-350" y="0"/><use xlink:href="#L1_15" x="0" y="0"/><use xlink:href="#L1_15" x="350" y="0"/><use xlink:href="#L1_15" x="-350" y="350"/><use xlink:href="#L1_15" x="0" y="350"/><use xlink:href="#L1_15" x="350" y="350"/></pattern><rect x="0" y="0" width="100%" height="100%" fill="url(#pattern_L1_15)"/></g><g fi:class="KUsePattern"><pattern id="pattern_L1_16" width="350" height="350" patternUnits="userSpaceOnUse"><use xlink:href="#L1_16" x="-350" y="-350"/><use xlink:href="#L1_16" x="0" y="-350"/><use xlink:href="#L1_16" x="350" y="-350"/><use xlink:href="#L1_16" x="-350" y="0"/><use xlink:href="#L1_16" x="0" y="0"/><use xlink:href="#L1_16" x="350" y="0"/><use xlink:href="#L1_16" x="-350" y="350"/><use xlink:href="#L1_16" x="0" y="350"/><use xlink:href="#L1_16" x="350" y="350"/></pattern><rect x="0" y="0" width="100%" height="100%" fill="url(#pattern_L1_16)"/></g></svg>